<svg xmlns="http://www.w3.org/2000/svg" xmlns:svg="http://www.w3.org/2000/svg" id="svg8" width="210mm" height="297mm" version="1.1" viewBox="0 0 210 297"><metadata id="metadata5"/><g id="layer1"><g id="g361" transform="matrix(0.26458333,0,0,0.26458333,-362.38468,29.138679)"><rect id="rect216" width="459" height="594" x="406" y="27.5" rx="38.142" style="fill:#f2f2f2"/><rect id="rect218" width="459" height="594" x="384" y=".5" stroke-miterlimit="10" rx="38.142" style="fill:none;stroke:#3f3d56;stroke-miterlimit:10"/><rect id="rect220" width="408" height="471.059" x="407.5" y="61.971" stroke-miterlimit="10" style="fill:none;stroke:#3f3d56;stroke-miterlimit:10"/><circle id="circle222" cx="613.5" cy="31" r="10" stroke-miterlimit="10" style="fill:none;stroke:#3f3d56;stroke-miterlimit:10"/><circle id="circle224" cx="613.5" cy="563.5" r="22" stroke-miterlimit="10" style="fill:none;stroke:#3f3d56;stroke-miterlimit:10"/><path id="path226" d="m 768.49028,174.035 a 67.00973,67.00973 0 0 0 -67.00974,67.00974 c 0,37.00844 70.20068,173.50735 70.20068,173.50735 0,0 63.81878,-136.49896 63.81878,-173.5074 A 67.00973,67.00973 0 0 0 768.49028,174.035 Z m 0,111.6829 a 35.10034,35.10034 0 1 1 35.10033,-35.10034 35.10034,35.10034 0 0 1 -35.10033,35.10029 z" transform="translate(-167.49999,-60.46789)" style="fill:#e83d60"/><ellipse id="ellipse228" cx="601" cy="400.5" rx="67" ry="22" style="fill:#e83d60"/><path id="path230" stroke-miterlimit="10" d="m 529.38066,156.42527 a 22.982,22.982 0 0 0 -19.80994,13.851 c -4.9535,11.97382 1.4245,26.03886 10.999,34.77028 9.5745,8.73142 21.87359,13.72225 33.04832,20.28234 15.00951,8.81129 28.4968,21.04282 36.0069,36.74386 7.5101,15.70104 8.30889,35.15009 -0.51891,50.14991 -8.1937,13.9224 -23.09255,22.2549 -37.30219,29.9397" transform="translate(-167.49999,-60.46789)" style="fill:none;stroke:#3f3d56;stroke-miterlimit:10"/><ellipse id="ellipse232" cx="374.5" cy="97" rx="17.5" ry="8.5" style="fill:#57b894"/><ellipse id="ellipse234" cx="388.5" cy="153" rx="17.5" ry="8.5" style="fill:#57b894"/><ellipse id="ellipse236" cx="356.5" cy="162" rx="17.5" ry="8.5" style="fill:#57b894"/><ellipse id="ellipse238" cx="406.5" cy="209" rx="17.5" ry="8.5" style="fill:#57b894"/><ellipse id="ellipse240" cx="441.5" cy="209" rx="17.5" ry="8.5" style="fill:#57b894"/><line id="line242" x1="47.491" x2="406" y1="778.564" y2="778.564" stroke-miterlimit="10" style="fill:none;stroke:#3f3d56;stroke-miterlimit:10"/><path id="path244" stroke-miterlimit="10" d="m 201.843,665.79059 a 21.4007,21.4007 0 0 0 -18.44687,12.89791 c -4.61266,11.14993 1.32648,24.24719 10.24221,32.37783 8.91573,8.13064 20.36852,12.77806 30.77434,18.88677 13.97676,8.205 26.536,19.59491 33.52937,34.21561 6.99337,14.6207 7.73717,32.73151 -0.4832,46.69923 -7.62992,12.96444 -21.50362,20.7236 -34.73553,27.87963" transform="translate(-167.49999,-60.46789)" style="fill:none;stroke:#3f3d56;stroke-miterlimit:10"/><ellipse id="ellipse246" cx="46.094" cy="606.294" rx="16.296" ry="7.915" style="fill:#57b894"/><ellipse id="ellipse248" cx="59.131" cy="658.44" rx="16.296" ry="7.915" style="fill:#57b894"/><ellipse id="ellipse250" cx="29.333" cy="666.821" rx="16.296" ry="7.915" style="fill:#57b894"/><ellipse id="ellipse252" cx="75.892" cy="710.587" rx="16.296" ry="7.915" style="fill:#57b894"/><ellipse id="ellipse254" cx="108.484" cy="710.587" rx="16.296" ry="7.915" style="fill:#57b894"/><path id="path256" stroke-miterlimit="10" d="m 241.35677,697.76985 a 17.47726,17.47726 0 0 1 15.06495,10.53331 c 3.767,9.10578 -1.08329,19.80188 -8.36448,26.4419 -7.28119,6.64002 -16.6343,10.43542 -25.13239,15.4242 -11.41436,6.70076 -21.67109,16.00253 -27.38233,27.94277 -5.71124,11.94024 -6.3187,26.73074 0.39462,38.13772 6.2311,10.58763 17.56129,16.92428 28.36736,22.76838" transform="translate(-167.49999,-60.46789)" style="fill:none;stroke:#3f3d56;stroke-miterlimit:10"/><ellipse id="ellipse258" cx="64.26" cy="638.095" rx="13.308" ry="6.464" style="fill:#57b894"/><ellipse id="ellipse260" cx="53.613" cy="680.681" rx="13.308" ry="6.464" style="fill:#57b894"/><ellipse id="ellipse262" cx="77.949" cy="687.526" rx="13.308" ry="6.464" style="fill:#57b894"/><ellipse id="ellipse264" cx="39.925" cy="723.268" rx="13.308" ry="6.464" style="fill:#57b894"/><ellipse id="ellipse266" cx="13.308" cy="723.268" rx="13.308" ry="6.464" style="fill:#57b894"/><path id="path268" d="m 297.34552,797.97233 c 0,0 9.31192,4.656 15.83027,5.58716 6.51835,0.93116 10.18471,-5.66194 8.81713,-7.95253 -1.36758,-2.29059 4.21957,-0.4282 7.94434,7.95253 0,0 15.83028,18.62385 25.1422,19.55505 9.31192,0.9312 9.38464,13.538 4.656,13.96789 -5.12156,0.46559 -13.96789,3.72477 -25.14221,0 -11.17432,-3.72477 -21.41743,-13.96789 -26.07339,-13.96789 -4.65596,0 -20.48624,-7.44955 -15.83028,-11.17432 4.65596,-3.72477 4.65594,-13.96789 4.65594,-13.96789 z" transform="translate(-167.49999,-60.46789)" style="fill:#3f3d56"/><path id="path270" d="m 389.12386,819.01147 a 51.71333,51.71333 0 0 0 14.20836,-0.872 c 6.39831,-1.55486 7.35545,-9.03787 5.23533,-10.65719 -2.12012,-1.61932 3.75918,-1.96386 10.32867,4.43555 0,0 21.61226,11.41733 30.60457,8.82553 8.99231,-2.5918 13.73932,9.08737 9.508,11.24176 a 53.94948,53.94948 0 0 1 -23.32533,6.58138 c -11.75859,0.6891 -25.0927,-2.269 -29.416,-0.5408 -4.3233,1.7282 -21.78784,0.6869 -18.84709,-4.5 2.94075,-5.1869 1.70349,-14.51423 1.70349,-14.51423 z" transform="translate(-167.49999,-60.46789)" style="fill:#3f3d56"/><circle id="circle272" cx="205.794" cy="278.048" r="36.317" style="fill:#ffc1c7"/><path id="path274" d="m 344.89221,352.94954 c 0,0 5.58716,39.11009 -7.44954,44.69725 -13.0367,5.58716 66.11468,3.72477 66.11468,3.72477 0,0 -11.17431,-35.38532 -8.38073,-44.69725 2.79358,-9.31193 -50.28441,-3.72477 -50.28441,-3.72477 z" transform="translate(-167.49999,-60.46789)" style="fill:#ffc1c7"/><path id="path276" d="m 331.85552,575.50459 c 0,0 -2.79358,70.77064 -5.58716,78.22018 -2.79358,7.44954 -5.58716,57.73395 -5.58716,57.73395 l -24.211,91.25688 22.34863,7.44954 c 0,0 30.72935,-54.00914 34.45417,-60.52753 3.72482,-6.51839 33.52293,-110.81192 33.52293,-110.81192 0,0 -2.79357,64.25229 -2.79357,85.66972 0,21.41743 5.58715,99.63762 5.58715,99.63762 l 17.69266,-1.86239 23.27982,-98.70642 c 0,0 33.52293,-133.16055 11.17431,-148.05963 -22.34862,-14.89908 -109.88078,0 -109.88078,0 z" transform="translate(-167.49999,-60.46789)" style="fill:#2f2e41"/><path id="path278" d="m 467.80964,597.85321 c 0,0 0.9312,54.00918 -10.24311,45.62844 -11.17431,-8.38074 0,-50.2844 0,-50.2844 z" transform="translate(-167.49999,-60.46789)" style="fill:#ffc1c7"/><path id="path280" d="m 313.23166,579.22936 c 0,0 0.9312,54.00917 -10.24312,45.62844 -11.17432,-8.38073 0,-50.28441 0,-50.28441 z" transform="translate(-167.49999,-60.46789)" style="fill:#ffc1c7"/><path id="path282" d="m 450.117,421.8578 c 0,0 -18.62385,-21.41743 -34.45412,-18.62386 -15.83027,2.79357 -102.4312,1.86239 -102.4312,1.86239 0,0 -28.867,36.31651 -21.41743,43.766 7.44957,7.44949 31.66055,139.6789 31.66055,139.6789 0,0 64.2523,-8.38073 86.60092,-8.38073 22.34862,0 31.66055,-3.72477 31.66055,-3.72477 0,0 -29.79817,-59.59633 -15.83028,-86.60092 13.96789,-27.00459 34.45411,-55.87151 34.45411,-55.87151 z" transform="translate(-167.49999,-60.46789)" style="fill:#e83d60"/><path id="path284" d="m 444.52983,428.37615 15.83027,5.58715 c 0,0 9.3119,32.5917 9.3119,58.66514 0,26.07344 0.93119,39.11009 4.656,48.422 3.72481,9.31191 15.83028,53.078 9.31193,62.38991 a 62.09627,62.09627 0 0 1 -13.0367,13.96789 l -21.41743,-1.86239 c 0,0 -0.93119,-30.72936 -6.51835,-33.52293 -5.58716,-2.79357 -13.03669,-20.48624 -13.03669,-20.48624 0,0 -17.69267,-56.80276 -6.51835,-75.42661 11.17432,-18.62385 21.41742,-57.73392 21.41742,-57.73392 z" transform="translate(-167.49999,-60.46789)" style="fill:#e83d60"/><path id="path286" d="m 384.9335,462.83027 c 0,0 9.31192,-40.97247 -8.38074,-39.11009 -17.69266,1.86238 -41.90367,2.79358 -48.422,2.79358 -6.51833,0 -43.76606,-4.656 -49.35322,19.555 -5.58716,24.211 -13.03669,54.00917 2.79358,72.633 0,0 5.58716,81.945 27.00459,87.53211 21.41743,5.58711 78.22018,12.10551 98.70642,-14.89908 20.48624,-27.00459 12.10551,-56.80275 12.10551,-56.80275 h -9.31194 z" transform="translate(-167.49999,-60.46789)" style="fill:#3f3d56"/><polygon id="polygon288" points="248.163 475.927 255.612 425.642 251.888 477.789" style="fill:#3f3d56"/><path id="path290" d="m 290.883,525.22018 c 0,0 15.83027,7.44954 48.422,2.79358 v 13.96789 l -48.422,-3.72477 z" transform="translate(-167.49999,-60.46789)" style="opacity:.1"/><polygon id="polygon292" points="208.587 362.787 232.798 349.75 212.312 367.443" style="fill:#3f3d56"/><path id="path294" d="m 427.76836,409.75229 c 0,0 18.62385,6.51835 18.62385,0 0,-6.51835 -16.76146,-12.1055 -27.00458,-15.83027 -10.24312,-3.72477 -58.66514,-9.31193 -66.11468,-12.10551 -7.44954,-2.79358 -42.83487,-7.44954 -45.62844,3.72477 -2.79357,11.17431 -3.72477,34.45413 10.24312,37.24771 13.96789,2.79358 50.2844,-4.656 68.90825,-2.79358 18.62385,1.86242 40.97248,-10.24312 40.97248,-10.24312 z" transform="translate(-167.49999,-60.46789)" style="fill:#e83d60"/><path id="path296" d="m 427.76836,409.75229 c 0,0 18.62385,6.51835 18.62385,0 0,-6.51835 -16.76146,-12.1055 -27.00458,-15.83027 -10.24312,-3.72477 -58.66514,-9.31193 -66.11468,-12.10551 -7.44954,-2.79358 -42.83487,-7.44954 -45.62844,3.72477 -2.79357,11.17431 -3.72477,34.45413 10.24312,37.24771 13.96789,2.79358 50.2844,-4.656 68.90825,-2.79358 18.62385,1.86242 40.97248,-10.24312 40.97248,-10.24312 z" transform="translate(-167.49999,-60.46789)" style="opacity:.1"/><polygon id="polygon298" points="130.367 370.236 136.696 356.942 137.817 373.03" style="fill:#3f3d56"/><ellipse id="ellipse300" cx="199.5" cy="276.032" rx="34" ry="39.5" style="fill:#2f2e41"/><ellipse id="ellipse302" cx="205.5" cy="255.032" rx="34" ry="21.5" style="fill:#2f2e41"/><ellipse id="ellipse304" cx="232" cy="287.532" rx="3.5" ry="6" style="fill:#ffc1c7"/><path id="path306" d="m 394.61838,310.08647 c 3.57661,-1.95762 6.63213,-5.49691 8.91976,-10.332 a 10.901,10.901 0 0 1 0.17861,3.27042 12.38365,12.38365 0 0 0 4.25791,-1.28372 l -0.31909,3.48552 a 35.95487,35.95487 0 0 0 7.0287,-5.62774 27.67423,27.67423 0 0 1 -2.462,14.8584 c -1.85521,3.66314 -4.37648,6.04583 -6.87143,8.39277" transform="translate(-167.49999,-60.46789)" style="fill:#2f2e41"/></g></g></svg>